PathFileType	4	(X/Y/Z)	C:/Users/opensim2020/Desktop/walking_exp_matlab/subject03_walking17_run.trc	
DataRate	CameraRate	NumFrames	NumMarkers	Units	OrigDataRate	OrigDataStartFrame	OrigNumFrames	
100.00	100.00	4	50	mm	100.00	303	132	
Frame#	Time	RTOE			LTHI			RWRB			LTIB			RELB			RUPA			RKNE			RTHI			RASI			RFRM			RWRA			RSHO			STRN			LFRM			CLAV			LWRB			LASI			RFHD			LFIN			LSHO			RTIB			LWRA			RBHD			LHEE			RANK			RHEE			C7			RFIN			LBHD			LUPA			LTOE			RBAK			LELB			LFHD			RPSI			LPSI			T10			LKNE			LANK			*39			*40			*41			*42			*43			*44			*45			*46			*47			*48			*49			
		X1	Y1	Z1	X2	Y2	Z2	X3	Y3	Z3	X4	Y4	Z4	X5	Y5	Z5	X6	Y6	Z6	X7	Y7	Z7	X8	Y8	Z8	X9	Y9	Z9	X10	Y10	Z10	X11	Y11	Z11	X12	Y12	Z12	X13	Y13	Z13	X14	Y14	Z14	X15	Y15	Z15	X16	Y16	Z16	X17	Y17	Z17	X18	Y18	Z18	X19	Y19	Z19	X20	Y20	Z20	X21	Y21	Z21	X22	Y22	Z22	X23	Y23	Z23	X24	Y24	Z24	X25	Y25	Z25	X26	Y26	Z26	X27	Y27	Z27	X28	Y28	Z28	X29	Y29	Z29	X30	Y30	Z30	X31	Y31	Z31	X32	Y32	Z32	X33	Y33	Z33	X34	Y34	Z34	X35	Y35	Z35	X36	Y36	Z36	X37	Y37	Z37	X38	Y38	Z38	X39	Y39	Z39	X40	Y40	Z40	X41	Y41	Z41	X42	Y42	Z42	X43	Y43	Z43	X44	Y44	Z44	X45	Y45	Z45	X46	Y46	Z46	X47	Y47	Z47	X48	Y48	Z48	X49	Y49	Z49	X50	Y50	Z50	

100	0.990	395.73923	1431.26868	102.95543	135.93108	1385.11377	607.80267	491.72607	1421.94690	955.35138	208.71696	1242.74121	276.04901	533.48297	1276.63623	1119.55701	508.54553	1305.17725	1208.02942	410.89731	1639.03564	509.68243	439.47147	1523.89355	647.22235	392.80835	1484.80542	910.52869	511.91830	1358.57410	1027.86914	460.29123	1439.43042	995.23743	410.36285	1424.49158	1366.24390	273.35461	1544.87183	1150.40430	81.15060	1566.52917	1095.98193	267.88760	1503.80750	1319.24048	159.23853	1642.44910	1103.97668	156.89310	1479.31702	902.18317	331.06525	1467.84827	1614.78113	225.17311	1684.70337	1133.87073	109.96196	1461.28394	1356.06274	423.56281	1513.54797	370.99530	182.43782	1606.74890	1140.05176	314.67880	1367.76660	1533.11694	304.65030	1069.07922	109.54659	397.35388	1354.45874	220.88358	345.52081	1297.59509	219.90945	243.08289	1376.33936	1388.38025	479.02283	1493.07593	935.97870	185.15610	1386.01746	1531.33728	15.29108	1468.54834	1177.31335	303.88431	1242.40454	30.86490	333.54092	1310.77356	1231.48608	3.60448	1490.76624	1078.35535	200.12183	1491.78784	1613.93567	357.15250	1325.14526	952.94177	208.25148	1322.92603	950.42218	268.42731	1336.56360	1084.39124	188.94495	1369.12500	432.74680	268.60202	1120.90271	116.43819							236.40146	1386.24768	1640.93225																								 
101	1.000	391.69308	1510.67212	92.27123	135.02174	1410.67126	615.21191	492.79279	1442.97998	968.49249	207.28979	1254.41870	287.78610	530.03705	1297.41504	1133.27197	505.57751	1329.05823	1220.26001	408.34268	1676.19458	521.07056	437.29779	1561.52356	657.30505	391.87607	1519.91553	918.52130	510.84772	1379.19922	1041.61743	461.47037	1461.32117	1008.14001	409.56070	1453.53186	1374.26367	275.02576	1577.71423	1158.29846	86.88637	1605.21655	1112.51282	269.28876	1535.03918	1326.87817	167.70490	1677.52869	1126.54663	156.20245	1514.63574	907.70654	330.97781	1500.09741	1622.11719	233.47972	1716.02686	1161.88892	111.77338	1494.47632	1364.92041	421.60745	1564.21973	369.11230	187.11511	1639.92322	1162.43848	314.87061	1399.30115	1541.37244	304.00388	1081.04297	125.74024	394.50134	1422.40527	202.09563	342.66602	1365.92139	195.70518	242.07782	1407.76050	1395.12695	482.89316	1514.49060	949.27283	185.38544	1417.69824	1538.87476	18.88045	1508.89026	1186.16394	303.53555	1243.97937	30.82031	330.02670	1341.49146	1238.67114	7.91456	1533.33167	1088.17664	200.21806	1524.05945	1620.47034	355.52115	1359.91931	960.29822	207.22966	1358.15637	956.80029	265.96643	1370.25769	1090.21790	187.38100	1385.52759	440.65649	268.01389	1131.13367	129.62524							236.24422	1419.03369	1648.63074																								 
102	1.010	386.38113	1590.13599	82.64790	133.99638	1437.31580	622.89740	492.84381	1464.65674	981.01123	205.22052	1268.21741	300.12433	526.41870	1319.35950	1146.81519	502.56186	1353.77478	1232.61646	405.59491	1711.18835	530.28418	435.33585	1598.37646	667.04962	391.60303	1553.69458	926.77161	509.10858	1400.86792	1054.86694	462.10007	1484.09009	1020.53064	408.73529	1483.10913	1382.10071	276.70923	1610.45874	1166.24231	92.09062	1642.44763	1128.71802	270.54022	1566.28223	1334.56885	174.94232	1711.12219	1148.17053	155.72731	1550.37109	913.67261	330.76373	1532.23889	1629.34973	240.65608	1745.61926	1188.04102	113.67445	1527.30786	1374.04150	419.80817	1614.47021	366.36453	190.76180	1671.94421	1183.77173	315.12177	1430.90234	1549.54077	302.79575	1096.11987	142.20900	391.56210	1491.83752	184.25879	339.82202	1436.06140	173.36275	241.53745	1439.46082	1402.11829	485.84702	1536.41345	961.85394	185.66394	1449.20325	1546.27893	22.09751	1548.44543	1195.68860	302.84390	1245.55554	30.60319	326.90240	1373.69116	1245.93994	11.60860	1574.74536	1098.72754	200.19536	1556.19202	1627.00842	353.86905	1394.82581	967.96301	206.46931	1393.95410	963.56250	263.07074	1404.12561	1096.26782	185.23412	1403.96912	449.97855	266.54303	1144.32642	142.67679							236.34032	1451.53857	1655.99109																								 
103	1.020	380.34409	1669.20215	74.52013	133.03427	1464.60071	630.65039	492.53497	1487.38428	992.87042	203.06763	1284.01355	312.60516	522.60681	1342.36938	1159.87354	498.75546	1378.87097	1244.79541	402.55484	1744.66943	537.46198	433.39667	1634.35559	676.21014	389.90158	1589.20410	935.58063	507.10599	1423.48291	1067.28357	462.25449	1507.65173	1032.19421	407.96216	1513.31555	1389.43542	277.89276	1642.99597	1174.10706	96.67026	1678.23999	1144.18909	271.60135	1597.50208	1342.09619	181.06224	1743.47119	1168.33691	155.13194	1586.46948	919.80969	330.56146	1564.33057	1636.18835	246.54128	1773.92480	1212.05225	115.58647	1559.80249	1383.10730	417.27325	1663.85486	362.94208	193.97159	1702.75513	1203.05566	315.33417	1462.45789	1557.33569	300.94080	1114.68298	158.10657	388.41602	1561.97290	168.21071	336.85864	1507.47522	153.41060	241.34941	1471.29883	1409.10571	488.22781	1559.15857	973.81342	185.94089	1480.69226	1553.37854	24.89449	1587.43335	1205.66223	302.13974	1246.96057	30.08478	323.91138	1405.03894	1253.63452	14.69299	1614.92566	1109.54773	200.11444	1588.17493	1633.21338	352.52563	1430.60803	975.53278	205.40738	1429.26953	970.36432	259.89429	1438.15332	1102.45630	183.28027	1423.69958	459.18375	264.13507	1160.36829	154.28998							235.82959	1484.01477	1663.48572																								 
